<svg width="34" height="33" viewBox="0 0 34 33" fill="red" xmlns="http://www.w3.org/2000/svg">
<path d="M10.1648 0H24.0248C29.3048 0 33.5948 4.29 33.5948 9.57V23.43C33.5948 25.9681 32.5865 28.4023 30.7918 30.197C28.9971 31.9917 26.5629 33 24.0248 33H10.1648C4.88479 33 0.594788 28.71 0.594788 23.43V9.57C0.594788 7.03188 1.60305 4.59771 3.39778 2.80299C5.1925 1.00827 7.62667 0 10.1648 0ZM9.83479 3.3C8.2594 3.3 6.74854 3.92582 5.63457 5.03979C4.52061 6.15375 3.89479 7.66461 3.89479 9.24V23.76C3.89479 27.0435 6.55129 29.7 9.83479 29.7H24.3548C25.9302 29.7 27.441 29.0742 28.555 27.9602C29.669 26.8462 30.2948 25.3354 30.2948 23.76V9.24C30.2948 5.9565 27.6383 3.3 24.3548 3.3H9.83479ZM25.7573 5.775C26.3043 5.775 26.8289 5.9923 27.2157 6.37909C27.6025 6.76589 27.8198 7.29049 27.8198 7.8375C27.8198 8.38451 27.6025 8.90911 27.2157 9.29591C26.8289 9.6827 26.3043 9.9 25.7573 9.9C25.2103 9.9 24.6857 9.6827 24.2989 9.29591C23.9121 8.90911 23.6948 8.38451 23.6948 7.8375C23.6948 7.29049 23.9121 6.76589 24.2989 6.37909C24.6857 5.9923 25.2103 5.775 25.7573 5.775ZM17.0948 8.25C19.2828 8.25 21.3812 9.11919 22.9284 10.6664C24.4756 12.2135 25.3448 14.312 25.3448 16.5C25.3448 18.688 24.4756 20.7865 22.9284 22.3336C21.3812 23.8808 19.2828 24.75 17.0948 24.75C14.9068 24.75 12.8083 23.8808 11.2612 22.3336C9.71398 20.7865 8.84479 18.688 8.84479 16.5C8.84479 14.312 9.71398 12.2135 11.2612 10.6664C12.8083 9.11919 14.9068 8.25 17.0948 8.25ZM17.0948 11.55C15.782 11.55 14.5229 12.0715 13.5946 12.9998C12.6663 13.9281 12.1448 15.1872 12.1448 16.5C12.1448 17.8128 12.6663 19.0719 13.5946 20.0002C14.5229 20.9285 15.782 21.45 17.0948 21.45C18.4076 21.45 19.6667 20.9285 20.595 20.0002C21.5233 19.0719 22.0448 17.8128 22.0448 16.5C22.0448 15.1872 21.5233 13.9281 20.595 12.9998C19.6667 12.0715 18.4076 11.55 17.0948 11.55Z" fill="#F09C13"/>
</svg>
