<svg width="93" height="93" viewBox="0 0 93 93" fill="none" xmlns="http://www.w3.org/2000/svg">
<circle cx="46.5" cy="46.5" r="46.5" fill="#EFA930"/>
<g clip-path="url(#clip0_5_250)">
<path d="M44.8667 23.5333V17.1333C44.8667 16.5675 45.0914 16.0249 45.4915 15.6248C45.8916 15.2248 46.4342 15 47 15C47.5658 15 48.1084 15.2248 48.5085 15.6248C48.9086 16.0249 49.1333 16.5675 49.1333 17.1333V23.5333C49.1333 24.0991 48.9086 24.6418 48.5085 25.0418C48.1084 25.4419 47.5658 25.6667 47 25.6667C46.4342 25.6667 45.8916 25.4419 45.4915 25.0418C45.0914 24.6418 44.8667 24.0991 44.8667 23.5333ZM47 29.9333C43.6245 29.9333 40.3249 30.9343 37.5183 32.8096C34.7117 34.6849 32.5242 37.3503 31.2325 40.4689C29.9407 43.5874 29.6027 47.0189 30.2613 50.3295C30.9198 53.6402 32.5452 56.6811 34.932 59.068C37.3189 61.4548 40.3599 63.0802 43.6705 63.7387C46.9811 64.3973 50.4126 64.0593 53.5311 62.7675C56.6497 61.4758 59.3151 59.2883 61.1904 56.4817C63.0657 53.6751 64.0667 50.3755 64.0667 47C64.0617 42.4752 62.2621 38.1371 59.0625 34.9375C55.863 31.738 51.5248 29.9383 47 29.9333ZM28.424 31.4427C28.8243 31.843 29.3672 32.0679 29.9333 32.0679C30.4994 32.0679 31.0424 31.843 31.4427 31.4427C31.843 31.0424 32.0679 30.4994 32.0679 29.9333C32.0679 29.3672 31.843 28.8243 31.4427 28.424L27.176 24.1573C26.7757 23.757 26.2328 23.5321 25.6667 23.5321C25.1006 23.5321 24.5576 23.757 24.1573 24.1573C23.757 24.5576 23.5321 25.1006 23.5321 25.6667C23.5321 26.2328 23.757 26.7757 24.1573 27.176L28.424 31.4427ZM28.424 62.5573L24.1573 66.824C23.757 67.2243 23.5321 67.7672 23.5321 68.3333C23.5321 68.8994 23.757 69.4424 24.1573 69.8427C24.5576 70.243 25.1006 70.4679 25.6667 70.4679C26.2328 70.4679 26.7757 70.243 27.176 69.8427L31.4427 65.576C31.6409 65.3778 31.7981 65.1425 31.9054 64.8835C32.0126 64.6245 32.0679 64.347 32.0679 64.0667C32.0679 63.7864 32.0126 63.5088 31.9054 63.2498C31.7981 62.9909 31.6409 62.7555 31.4427 62.5573C31.2445 62.3591 31.0092 62.2019 30.7502 62.0946C30.4912 61.9874 30.2136 61.9321 29.9333 61.9321C29.653 61.9321 29.3755 61.9874 29.1165 62.0946C28.8575 62.2019 28.6222 62.3591 28.424 62.5573ZM64.0667 32.0667C64.3469 32.0669 64.6244 32.0119 64.8834 31.9048C65.1424 31.7978 65.3777 31.6407 65.576 31.4427L69.8427 27.176C70.243 26.7757 70.4679 26.2328 70.4679 25.6667C70.4679 25.1006 70.243 24.5576 69.8427 24.1573C69.4424 23.757 68.8994 23.5321 68.3333 23.5321C67.7672 23.5321 67.2243 23.757 66.824 24.1573L62.5573 28.424C62.2586 28.7224 62.0552 29.1026 61.9727 29.5167C61.8903 29.9307 61.9325 30.3599 62.0941 30.75C62.2557 31.14 62.5294 31.4733 62.8806 31.7077C63.2317 31.9421 63.6445 32.067 64.0667 32.0667ZM65.576 62.5573C65.1757 62.157 64.6328 61.9321 64.0667 61.9321C63.5006 61.9321 62.9576 62.157 62.5573 62.5573C62.157 62.9576 61.9321 63.5006 61.9321 64.0667C61.9321 64.6328 62.157 65.1757 62.5573 65.576L66.824 69.8427C67.0222 70.0409 67.2575 70.1981 67.5165 70.3054C67.7755 70.4126 68.053 70.4679 68.3333 70.4679C68.6136 70.4679 68.8912 70.4126 69.1502 70.3054C69.4092 70.1981 69.6445 70.0409 69.8427 69.8427C70.0409 69.6445 70.1981 69.4092 70.3054 69.1502C70.4126 68.8912 70.4679 68.6136 70.4679 68.3333C70.4679 68.053 70.4126 67.7755 70.3054 67.5165C70.1981 67.2575 70.0409 67.0222 69.8427 66.824L65.576 62.5573ZM25.6667 47C25.6667 46.4342 25.4419 45.8916 25.0418 45.4915C24.6418 45.0914 24.0991 44.8667 23.5333 44.8667H17.1333C16.5675 44.8667 16.0249 45.0914 15.6248 45.4915C15.2248 45.8916 15 46.4342 15 47C15 47.5658 15.2248 48.1084 15.6248 48.5085C16.0249 48.9086 16.5675 49.1333 17.1333 49.1333H23.5333C24.0991 49.1333 24.6418 48.9086 25.0418 48.5085C25.4419 48.1084 25.6667 47.5658 25.6667 47ZM47 68.3333C46.4342 68.3333 45.8916 68.5581 45.4915 68.9582C45.0914 69.3582 44.8667 69.9009 44.8667 70.4667V76.8667C44.8667 77.4325 45.0914 77.9751 45.4915 78.3752C45.8916 78.7752 46.4342 79 47 79C47.5658 79 48.1084 78.7752 48.5085 78.3752C48.9086 77.9751 49.1333 77.4325 49.1333 76.8667V70.4667C49.1333 69.9009 48.9086 69.3582 48.5085 68.9582C48.1084 68.5581 47.5658 68.3333 47 68.3333ZM76.8667 44.8667H70.4667C69.9009 44.8667 69.3582 45.0914 68.9582 45.4915C68.5581 45.8916 68.3333 46.4342 68.3333 47C68.3333 47.5658 68.5581 48.1084 68.9582 48.5085C69.3582 48.9086 69.9009 49.1333 70.4667 49.1333H76.8667C77.4325 49.1333 77.9751 48.9086 78.3752 48.5085C78.7752 48.1084 79 47.5658 79 47C79 46.4342 78.7752 45.8916 78.3752 45.4915C77.9751 45.0914 77.4325 44.8667 76.8667 44.8667Z" fill="white"/>
</g>
<defs>
<clipPath id="clip0_5_250">
<rect width="64" height="64" fill="white" transform="translate(15 15)"/>
</clipPath>
</defs>
</svg>
