<svg width="93" height="93" viewBox="0 0 93 93" fill="none" xmlns="http://www.w3.org/2000/svg">
<circle cx="46.5" cy="46.5" r="46.5" fill="#EFA930"/>
<path d="M23 26V30H67V62H39V66H75V62H71V26H23ZM31.004 32C28.8842 32.0074 26.8532 32.8525 25.3539 34.3511C23.8545 35.8496 23.0084 37.8802 23 40C23 44.398 26.608 48 31.004 48C33.1228 47.9916 35.1523 47.1459 36.6501 45.6473C38.148 44.1487 38.9926 42.1188 39 40C39 35.606 35.396 32 31.004 32ZM43 34V38H53V34H43ZM57 34V38H63V34H57ZM31.004 36C33.232 36 35 37.766 35 40C35 42.24 33.234 44 31.004 44C28.764 44 27 42.24 27 40C27 37.766 28.766 36 31.004 36ZM43 42V46H63V42H43ZM23 50V66H27V54H33V66H37V55.316L41.128 57.5C42.298 58.12 43.704 58.118 44.872 57.5V57.504L51.932 53.77L50.066 50.23L43.004 53.964L36.812 50.696C35.9478 50.2395 34.9854 50.0006 34.008 50H23Z" fill="white"/>
</svg>
