<svg width="34" height="34" viewBox="0 0 34 34" fill="none" xmlns="http://www.w3.org/2000/svg">
<path d="M26.5044 33.0835C25.0629 33.0835 23.0379 32.5621 20.0057 30.868C16.3185 28.8003 13.4664 26.8913 9.7991 23.2336C6.26323 19.6999 4.54256 17.4121 2.13436 13.0299C-0.586225 8.08205 -0.122456 5.48848 0.395961 4.38001C1.01334 3.05517 1.92463 2.26277 3.10251 1.47629C3.77154 1.03795 4.47955 0.662193 5.21754 0.353788C5.29139 0.322033 5.36006 0.291755 5.42136 0.264431C5.78691 0.0997489 6.34077 -0.149121 7.04234 0.116734C7.51054 0.292494 7.92852 0.652137 8.58282 1.29831C9.92465 2.62168 11.7583 5.56898 12.4348 7.01641C12.8889 7.99195 13.1895 8.63591 13.1902 9.35815C13.1902 10.2037 12.7649 10.8558 12.2487 11.5596C12.1519 11.6918 12.0559 11.818 11.9629 11.9406C11.4009 12.6791 11.2776 12.8925 11.3588 13.2736C11.5235 14.0394 12.7516 16.3191 14.7699 18.333C16.7881 20.3468 19.0021 21.4974 19.7709 21.6613C20.1682 21.7463 20.386 21.6178 21.1482 21.0358C21.2575 20.9524 21.3697 20.866 21.4871 20.7796C22.2743 20.194 22.8962 19.7797 23.7218 19.7797H23.7262C24.4448 19.7797 25.0599 20.0913 26.079 20.6053C27.4083 21.2758 30.4442 23.0859 31.7757 24.4292C32.4234 25.082 32.7845 25.4985 32.961 25.966C33.2268 26.6697 32.9765 27.2214 32.8133 27.5906C32.786 27.6519 32.7557 27.7191 32.7239 27.7937C32.4131 28.5304 32.0351 29.2369 31.5948 29.9043C30.8098 31.0785 30.0144 31.9876 28.6866 32.6057C28.0048 32.9282 27.2586 33.0916 26.5044 33.0835Z" fill="#F09C13"/>
</svg>
