<svg width="93" height="93" viewBox="0 0 93 93" fill="none" xmlns="http://www.w3.org/2000/svg">
<circle cx="46.5" cy="46.5" r="46.5" fill="#EFA930"/>
<path d="M11.8807 41.3438V39.4545H23.1378V41.3438H18.5994V54H16.4119V41.3438H11.8807ZM37.6353 46.7273C37.6353 48.2803 37.3512 49.6155 36.783 50.733C36.2148 51.8456 35.436 52.7027 34.4464 53.304C33.4615 53.9006 32.3417 54.1989 31.087 54.1989C29.8275 54.1989 28.703 53.9006 27.7134 53.304C26.7286 52.7027 25.9521 51.8433 25.3839 50.7259C24.8157 49.6084 24.5316 48.2756 24.5316 46.7273C24.5316 45.1742 24.8157 43.8414 25.3839 42.7287C25.9521 41.6113 26.7286 40.7543 27.7134 40.1577C28.703 39.5563 29.8275 39.2557 31.087 39.2557C32.3417 39.2557 33.4615 39.5563 34.4464 40.1577C35.436 40.7543 36.2148 41.6113 36.783 42.7287C37.3512 43.8414 37.6353 45.1742 37.6353 46.7273ZM35.462 46.7273C35.462 45.5436 35.2702 44.5469 34.8867 43.7372C34.5079 42.9228 33.9871 42.3073 33.3242 41.8906C32.6661 41.4692 31.9203 41.2585 31.087 41.2585C30.2489 41.2585 29.5008 41.4692 28.8427 41.8906C28.1845 42.3073 27.6637 42.9228 27.2802 43.7372C26.9014 44.5469 26.712 45.5436 26.712 46.7273C26.712 47.911 26.9014 48.91 27.2802 49.7244C27.6637 50.5341 28.1845 51.1496 28.8427 51.571C29.5008 51.9877 30.2489 52.196 31.087 52.196C31.9203 52.196 32.6661 51.9877 33.3242 51.571C33.9871 51.1496 34.5079 50.5341 34.8867 49.7244C35.2702 48.91 35.462 47.911 35.462 46.7273ZM28.9989 37.7429C28.6628 37.7429 28.3692 37.6198 28.1183 37.3736C27.8673 37.1226 27.7418 36.8338 27.7418 36.5071C27.7418 36.152 27.8673 35.8561 28.1183 35.6193C28.3692 35.3826 28.6628 35.2642 28.9989 35.2642C29.354 35.2642 29.65 35.3826 29.8867 35.6193C30.1282 35.8561 30.2489 36.152 30.2489 36.5071C30.2489 36.8338 30.1282 37.1226 29.8867 37.3736C29.65 37.6198 29.354 37.7429 28.9989 37.7429ZM33.1751 37.7429C32.8389 37.7429 32.5453 37.6198 32.2944 37.3736C32.0434 37.1226 31.918 36.8338 31.918 36.5071C31.918 36.152 32.0434 35.8561 32.2944 35.6193C32.5453 35.3826 32.8389 35.2642 33.1751 35.2642C33.5302 35.2642 33.8261 35.3826 34.0629 35.6193C34.3043 35.8561 34.4251 36.152 34.4251 36.5071C34.4251 36.8338 34.3043 37.1226 34.0629 37.3736C33.8261 37.6198 33.5302 37.7429 33.1751 37.7429ZM40.3714 39.4545H43.0348L47.6655 50.7614H47.8359L52.4666 39.4545H55.13V54H53.0419V43.4744H52.907L48.6172 53.9787H46.8842L42.5945 43.4673H42.4595V54H40.3714V39.4545ZM58.3207 54V39.4545H67.44V41.3438H60.5153V45.7756H66.9641V47.6577H60.5153V52.1108H67.5252V54H58.3207ZM70.3714 54V39.4545H75.5561C76.683 39.4545 77.6181 39.6487 78.3615 40.0369C79.1096 40.4252 79.6683 40.9626 80.0376 41.6491C80.407 42.331 80.5916 43.1193 80.5916 44.0142C80.5916 44.9044 80.4046 45.688 80.0305 46.3651C79.6612 47.0374 79.1025 47.5606 78.3544 47.9347C77.611 48.3087 76.6759 48.4957 75.549 48.4957H71.6214V46.6065H75.3501C76.0604 46.6065 76.638 46.5047 77.0831 46.3011C77.5329 46.0975 77.862 45.8016 78.0703 45.4134C78.2786 45.0251 78.3828 44.5587 78.3828 44.0142C78.3828 43.465 78.2763 42.9891 78.0632 42.5866C77.8549 42.1842 77.5258 41.8764 77.076 41.6634C76.6309 41.4455 76.0462 41.3366 75.3217 41.3366H72.5661V54H70.3714ZM77.5518 47.4375L81.1456 54H78.6456L75.1229 47.4375H77.5518Z" fill="white"/>
</svg>
