<svg width="93" height="93" viewBox="0 0 93 93" fill="none" xmlns="http://www.w3.org/2000/svg">
<circle cx="46.5" cy="46.5" r="46.5" fill="#EFA930"/>
<path d="M77 31V33C77 33.2652 76.8946 33.5196 76.7071 33.7071C76.5196 33.8946 76.2652 34 76 34H73V35.5C73 36.3284 72.3284 37 71.5 37H22.5C21.6716 37 21 36.3284 21 35.5V34H18C17.7348 34 17.4804 33.8946 17.2929 33.7071C17.1054 33.5196 17 33.2652 17 33V31C17 30.8022 17.0587 30.6088 17.1686 30.4443C17.2786 30.2798 17.4348 30.1517 17.6176 30.076L46.6176 19.076C46.8625 18.9746 47.1375 18.9746 47.3824 19.076L76.3824 30.076C76.5652 30.1517 76.7214 30.2798 76.8314 30.4443C76.9413 30.6088 77 30.8022 77 31ZM74 69H20C18.3431 69 17 70.3431 17 72V74C17 74.2652 17.1054 74.5196 17.2929 74.7071C17.4804 74.8946 17.7348 75 18 75H76C76.2652 75 76.5196 74.8946 76.7071 74.7071C76.8946 74.5196 77 74.2652 77 74V72C77 70.3431 75.6569 69 74 69ZM27 39V63H22.5C21.6716 63 21 63.6716 21 64.5V67H73V64.5C73 63.6716 72.3284 63 71.5 63H67V39H59V63H51V39H43V63H35V39H27Z" fill="white"/>
</svg>
