<svg width="34" height="34" viewBox="0 0 34 34" fill="none" xmlns="http://www.w3.org/2000/svg">
<path d="M28.2571 4.81285C26.7332 3.28125 24.9181 2.06688 22.9176 1.24058C20.917 0.414283 18.7712 -0.00740951 16.6052 9.85202e-05C7.52968 9.85202e-05 0.132975 7.3598 0.132975 16.3899C0.132975 19.2842 0.897578 22.0957 2.32705 24.5765L0 33.0774L8.72645 30.7951C11.1366 32.1016 13.846 32.7963 16.6052 32.7963C25.6807 32.7963 33.0774 25.4366 33.0774 16.4064C33.0774 12.0237 31.3654 7.90558 28.2571 4.81285ZM16.6052 30.0178C14.1452 30.0178 11.735 29.3562 9.62403 28.1158L9.12538 27.8181L3.93937 29.1743L5.31898 24.1465L4.98654 23.6338C3.61981 21.4623 2.89409 18.9521 2.8922 16.3899C2.8922 8.88136 9.04227 2.76205 16.5886 2.76205C20.2454 2.76205 23.6861 4.18438 26.2625 6.76441C27.5382 8.0279 28.5491 9.53077 29.2368 11.1859C29.9244 12.841 30.275 14.6155 30.2683 16.4064C30.3016 23.915 24.1515 30.0178 16.6052 30.0178ZM24.1182 19.8299C23.7027 19.6315 21.6748 18.6392 21.3092 18.4903C20.9269 18.358 20.6609 18.2919 20.3783 18.6888C20.0958 19.1022 19.3145 20.0284 19.0818 20.293C18.8491 20.5742 18.5998 20.6073 18.1843 20.3923C17.7687 20.1938 16.439 19.7473 14.8765 18.358C13.6465 17.2665 12.832 15.9268 12.5827 15.5134C12.35 15.0999 12.5495 14.8849 12.7656 14.6699C12.9484 14.488 13.1811 14.1903 13.3806 13.9587C13.58 13.7272 13.6631 13.5453 13.7961 13.2806C13.9291 12.9995 13.8626 12.7679 13.7629 12.5695C13.6631 12.371 12.832 10.3533 12.4996 9.52637C12.1672 8.73251 11.8181 8.83174 11.5688 8.8152H10.7709C10.4884 8.8152 10.0562 8.91443 9.67389 9.3279C9.30822 9.74137 8.24442 10.7337 8.24442 12.7514C8.24442 14.7691 9.72376 16.7207 9.92322 16.9853C10.1227 17.2665 12.832 21.4011 16.9543 23.1708C17.9349 23.6008 18.6995 23.8488 19.2979 24.0308C20.2786 24.345 21.1762 24.2954 21.8909 24.1962C22.6888 24.0804 24.3343 23.2038 24.6668 22.2446C25.0158 21.2853 25.0158 20.475 24.8995 20.293C24.7831 20.1111 24.5338 20.0284 24.1182 19.8299Z" fill="#F09C13"/>
</svg>
