<svg width="43" height="30" viewBox="0 0 43 30" fill="none" xmlns="http://www.w3.org/2000/svg">
<path d="M17.2372 21.4286L28.3586 15L17.2372 8.57143V21.4286ZM42.0086 4.65C42.2872 5.65714 42.4801 7.00714 42.6086 8.72143C42.7586 10.4357 42.8229 11.9143 42.8229 13.2L42.9515 15C42.9515 19.6929 42.6086 23.1429 42.0086 25.35C41.4729 27.2786 40.2301 28.5214 38.3015 29.0571C37.2944 29.3357 35.4515 29.5286 32.6229 29.6571C29.8372 29.8071 27.2872 29.8714 24.9301 29.8714L21.5229 30C12.5444 30 6.9515 29.6571 4.74436 29.0571C2.81579 28.5214 1.57293 27.2786 1.03722 25.35C0.758646 24.3429 0.565789 22.9929 0.437218 21.2786C0.287218 19.5643 0.222932 18.0857 0.222932 16.8L0.0943604 15C0.0943604 10.3071 0.437218 6.85714 1.03722 4.65C1.57293 2.72143 2.81579 1.47857 4.74436 0.942857C5.7515 0.664286 7.59436 0.471428 10.4229 0.342857C13.2086 0.192857 15.7586 0.128571 18.1158 0.128571L21.5229 0C30.5015 0 36.0944 0.342857 38.3015 0.942857C40.2301 1.47857 41.4729 2.72143 42.0086 4.65Z" fill="#F09C13"/>
</svg>
